<svg xmlns="http://www.w3.org/2000/svg" width="47.911" height="47.526" viewBox="0 0 47.911 47.526">
  <g id="Group_2" data-name="Group 2" transform="translate(-0.088 -0.18)">
    <path id="Path_5" data-name="Path 5" d="M24.043.18A24.163,24.163,0,0,0,.088,24.545,24.337,24.337,0,0,0,16.47,47.664c1.2.226,1.637-.528,1.637-1.172,0-.581-.022-2.5-.033-4.536C11.41,43.43,10,39.081,10,39.081c-1.09-2.816-2.66-3.565-2.66-3.565-2.173-1.512.164-1.481.164-1.481a5.044,5.044,0,0,1,3.672,2.511c2.137,3.725,5.6,2.648,6.971,2.025a5.223,5.223,0,0,1,1.521-3.258C14.351,34.7,8.757,32.608,8.757,23.272a9.519,9.519,0,0,1,2.468-6.54,8.894,8.894,0,0,1,.232-6.448s2.012-.655,6.589,2.5a22.356,22.356,0,0,1,12,0c4.572-3.152,6.581-2.5,6.581-2.5a8.883,8.883,0,0,1,.235,6.448,9.5,9.5,0,0,1,2.465,6.54c0,9.358-5.6,11.419-10.939,12.022a5.877,5.877,0,0,1,1.625,4.512c0,3.26-.028,5.883-.028,6.686,0,.648.431,1.408,1.645,1.169A24.335,24.335,0,0,0,48,24.545,24.162,24.162,0,0,0,24.043.18Z" fill="#fff" fill-rule="evenodd"/>
    <path id="Path_6" data-name="Path 6" d="M9.161,35.162c-.053.121-.24.157-.411.074s-.271-.244-.215-.366.239-.159.413-.076S9.221,35.041,9.161,35.162Z" fill="#fff" fill-rule="evenodd"/>
    <path id="Path_7" data-name="Path 7" d="M10.131,36.263c-.114.108-.338.058-.489-.113a.377.377,0,0,1-.07-.506c.118-.108.334-.057.491.113S10.251,36.154,10.131,36.263Z" fill="#fff" fill-rule="evenodd"/>
    <path id="Path_8" data-name="Path 8" d="M11.076,37.666c-.147.1-.387.007-.535-.21s-.147-.477,0-.581.385-.011.536.2A.436.436,0,0,1,11.076,37.666Z" fill="#fff" fill-rule="evenodd"/>
    <path id="Path_9" data-name="Path 9" d="M12.37,39.022c-.131.147-.411.108-.616-.093a.474.474,0,0,1-.136-.623c.133-.148.414-.106.62.093S12.51,38.876,12.37,39.022Z" fill="#fff" fill-rule="evenodd"/>
    <path id="Path_10" data-name="Path 10" d="M14.155,39.809c-.058.191-.327.278-.6.2s-.448-.307-.394-.5.327-.282.6-.2S14.211,39.615,14.155,39.809Z" fill="#fff" fill-rule="evenodd"/>
    <path id="Path_11" data-name="Path 11" d="M16.115,39.955c.007.2-.223.368-.508.371s-.518-.156-.521-.353.225-.368.511-.373S16.115,39.755,16.115,39.955Z" fill="#fff" fill-rule="evenodd"/>
    <path id="Path_12" data-name="Path 12" d="M17.94,39.639c.034.2-.164.4-.447.451s-.535-.069-.571-.264.167-.4.445-.454S17.9,39.44,17.94,39.639Z" fill="#fff" fill-rule="evenodd"/>
  </g>
</svg>
