<svg xmlns="http://www.w3.org/2000/svg" width="252.222" height="238.909" viewBox="0 0 252.222 238.909">
  <g id="Group_1" data-name="Group 1" transform="translate(-0.524)">
    <path id="Path_1" data-name="Path 1" d="M67.239,199.866a101.969,101.969,0,0,0,25.371,21.9,89.652,89.652,0,0,0,9.27,4.837c21.949,9.865,46.964,10.507,70.358,4.836,49.189-11.921,75.286-55.339,78.6-103.539.889-13.025,2.882-27.094-2.4-39.486S232.5,68.33,220.43,62.984c-8.761-3.9-18.225-6.52-26.823-8.66a69,69,0,0,0-46.424,4.79c-10.112,4.8-17.313,13.133-25.819,20.156q-1.352,1.113-2.719,2.217A254.832,254.832,0,0,1,91.605,100.5c-14.3,8.723-28.94,16.95-38.08,31.6C38.947,155.444,51.247,180.861,67.239,199.866Z" fill="#dde392"/>
    <path id="Path_2" data-name="Path 2" d="M67.239,199.866a101.969,101.969,0,0,0,25.371,21.9,89.652,89.652,0,0,0,9.27,4.837c21.949,9.865,46.964,10.507,70.358,4.836,49.189-11.921,75.286-55.339,78.6-103.539.889-13.025,2.882-27.094-2.4-39.486S232.5,68.33,220.43,62.984c-8.761-3.9-18.225-6.52-26.823-8.66a69,69,0,0,0-46.424,4.79c-10.112,4.8-17.313,13.133-25.819,20.156q-1.352,1.113-2.719,2.217A254.832,254.832,0,0,1,91.605,100.5c-14.3,8.723-28.94,16.95-38.08,31.6C38.947,155.444,51.247,180.861,67.239,199.866Z" fill="#fff" opacity="0.4"/>
    <path id="Path_3" data-name="Path 3" d="M118.676,81.487q1.366-1.1,2.719-2.225c8.5-7.038,15.714-15.351,25.819-20.148a69.042,69.042,0,0,1,46.423-4.79c20.45,5.076,45.813,12.894,54.852,34.1,5.277,12.361,3.284,26.453,2.387,39.478-3.352,48.2-29.45,91.618-78.639,103.539-26.761,6.489-55.624,4.712-79.628-9.673a101.97,101.97,0,0,1-25.371-21.9C51.246,180.862,38.947,155.445,53.51,132.1c9.132-14.679,23.772-22.876,38.08-31.6a254.892,254.892,0,0,0,27.087-19.013Z" fill="none" stroke="#263238" stroke-miterlimit="10" stroke-width="1.52"/>
    <path id="Path_4" data-name="Path 4" d="M193.189,167.435a70.776,70.776,0,0,1,11.874,4.805" fill="none" stroke="#263238" stroke-linecap="round" stroke-linejoin="round" stroke-width="1.52"/>
    <path id="Path_5" data-name="Path 5" d="M168.12,162.66a126.732,126.732,0,0,1,17.769,2.82" fill="none" stroke="#263238" stroke-linecap="round" stroke-linejoin="round" stroke-width="1.52"/>
    <path id="Path_6" data-name="Path 6" d="M173.335,161.424a62.792,62.792,0,0,1,50.942-2.665" fill="none" stroke="#263238" stroke-linecap="round" stroke-linejoin="round" stroke-width="1.52"/>
    <path id="Path_7" data-name="Path 7" d="M67.238,199.866a101.968,101.968,0,0,0,25.371,21.9,89.57,89.57,0,0,0,9.271,4.837,72.493,72.493,0,0,0,7.393-2.712c14.416-6.18,26.514-16.633,38.335-26.939,7.13-6.181,14.377-12.516,22.914-16.587a52.7,52.7,0,0,1,36.959-3.044,41.512,41.512,0,0,0-24.444-13.45c6.1-5.555,14.594-7.888,22.845-8.035s12.794.865,20.859,2.673c-2.7-4.96-9.85-9.448-15.5-9.317a140.146,140.146,0,0,0,16.053-1.136c7.286-1.174,10.546-9.749,11.635-17.042,3.013-20.087-.038-41.479-11-58.553a59.564,59.564,0,0,0-7.494-9.479c-8.761-3.9-18.225-6.52-26.823-8.66a69,69,0,0,0-46.424,4.79c-10.112,4.8-17.313,13.133-25.819,20.156q-1.352,1.113-2.719,2.217A254.824,254.824,0,0,1,91.612,100.5c-14.3,8.723-28.94,16.95-38.08,31.6C38.947,155.444,51.246,180.861,67.238,199.866Z" opacity="0.1"/>
    <path id="Path_8" data-name="Path 8" d="M59.188,199.28a149.356,149.356,0,0,1-13.574,10.043c-9.186.618-5.068,11.72-5.068,11.72l7.865,5.06s13.466-10.7,20.821-14.168S59.188,199.28,59.188,199.28Z" fill="#fff"/>
    <path id="Path_9" data-name="Path 9" d="M124.462,82.391s1.259-12.461,3.268-15.961l30.5-6.211V57.855s-.7-4.11,6.1-6.683,20.967.772,24.621,3.538,2.318,7.525,2.318,7.525,12.284,6.2,17.8,8.568a141.116,141.116,0,0,1,13.188,6.953s2.5,28.646,2.008,35.3.4,12.91-.17,16.6-1.019,5.779-4.882,8.915-7.378,7.726-17.507,3.175l1.414-1.12-66.672-22.458Z" opacity="0.3"/>
    <path id="Path_10" data-name="Path 10" d="M124.462,82.391s1.259-12.461,3.268-15.961l30.5-6.211V57.855s-.7-4.11,6.1-6.683,20.967.772,24.621,3.538,2.318,7.525,2.318,7.525,12.284,6.2,17.8,8.568a141.116,141.116,0,0,1,13.188,6.953s2.5,28.646,2.008,35.3.4,12.91-.17,16.6-1.019,5.779-4.882,8.915-7.378,7.726-17.507,3.175l1.414-1.12-66.672-22.458Z" fill="#f7717d"/>
    <path id="Path_11" data-name="Path 11" d="M124.462,82.391s1.259-12.461,3.268-15.961l30.5-6.211V57.855s-.7-4.11,6.1-6.683,20.967.772,24.621,3.538,2.318,7.525,2.318,7.525,12.284,6.2,17.8,8.568a141.116,141.116,0,0,1,13.188,6.953s2.5,28.646,2.008,35.3.4,12.91-.17,16.6-1.019,5.779-4.882,8.915-7.378,7.726-17.507,3.175l1.414-1.12-66.672-22.458Z" opacity="0.05"/>
    <path id="Path_12" data-name="Path 12" d="M127.328,67.944h12.763a5.074,5.074,0,0,1,5,4.241l6.289,37.855s8.66.719,14.794,5.192S187.4,87.791,211.236,87.776c0,0-6.86,15.683-8.382,28.2,0,0,14.9-1.623,17.375,4.21s-1.121,16.765-7.425,12.531-12.237-11.3-16.447-6.829-23.023,6.868-23.023,6.868l-28.948-14.594-11.225-5.277Z" opacity="0.1"/>
    <path id="Path_13" data-name="Path 13" d="M167.849,49.179s-7.247,2.009-8.421,4.442-1.051,8.591-1.051,8.591a29.748,29.748,0,0,0,7.795,10.723l5.408-10.723-.486,12.16s10.259-1.707,14.617-4.983l4.349-3.283s1.877-6.18,1.607-8.274-8.1-6.343-8.1-6.343Z" fill="#fff" opacity="0.4"/>
    <path id="Path_14" data-name="Path 14" d="M47.144,236.687c.2-.44-2.974-6.049-.487-11.758s6.451-3.507,6.451-3.507,11.287-7.185,16.031-9.457a80.734,80.734,0,0,0,9.85-5.856L84,212.862,79.368,227.2Z" fill="#08bdbd"/>
    <path id="Path_15" data-name="Path 15" d="M53.517,221.074l-14.493,8.854s-10.19-6.536-15.05-11.048S8.2,204.758,8.2,204.758L1.246,195.4s4.821-5.964,12.855-1.174c10.383,6.18,23.046,15.157,31.49,15.072,0,0-1.661,10.376,7.872,11.774" fill="#08bdbd"/>
    <path id="Path_16" data-name="Path 16" d="M170.306,11.725s-6.575,9.951-7.772,13.172-2.163,7.988-1.924,10.283,2.65,14.586,3.863,14.941l1.167,1.321-.773,5.207s5.145,8.892,20.272,2.372c0,0,.587-10.383,2.426-13.644s4.589.618,7.347-8.8-6.026-19.314-6.026-19.314Z" fill="#fff"/>
    <path id="Path_17" data-name="Path 17" d="M7.558,192.5s7.455,1.3,9.873,5.709,7.061,12.608,8.645,16.572,14.679,13.535,14.679,13.535l-1.738,1.614s-10.661-6.589-17.1-12.855S1.292,195.046,1.292,195.046,2.312,194.034,7.558,192.5Z" fill="#fff" opacity="0.5"/>
    <path id="Path_18" data-name="Path 18" d="M82.157,210.382,84,212.862,78.333,224.62,47.144,235.83,45.7,231.264s-.479-4.635,10.468-8.158,17.622-5.849,20.736-8.267S82.157,210.382,82.157,210.382Z" fill="#fff" opacity="0.5"/>
    <path id="Path_19" data-name="Path 19" d="M185.116,123.051s9.549-1.437,14.006,6.374,4,11.194,4,11.194-6.312,5.733-14.987,5.408-21.308-10.259-25.425-13.5-14.5-12.5-21.586-10.585l-.772-6.7s.695-3.005,6.752-2.194,8.436,4.265,10.391,4.265,3.8-1.878,7.725,4.828C165.23,122.147,179.005,124.589,185.116,123.051Z" fill="#fff"/>
    <path id="Path_20" data-name="Path 20" d="M172.708,26.033a27.608,27.608,0,0,1-.865,3.7,4.31,4.31,0,0,1-.773,1.63A4.993,4.993,0,0,1,168.1,32.5a.811.811,0,0,0-.479.2.772.772,0,0,0-.116.464,6.183,6.183,0,0,0,1.051,3.415" fill="none" stroke="#263238" stroke-linecap="round" stroke-linejoin="round" stroke-width="1.52"/>
    <path id="Path_21" data-name="Path 21" d="M75.752,202.37l6.4,7.981s-7.03,6.5-14.308,8.908S47.832,226.212,45.7,229.711l.819-4.164s19.924-12.222,24.5-15.142a10.554,10.554,0,0,0,4.736-8.035Z" opacity="0.1"/>
    <path id="Path_22" data-name="Path 22" d="M53.517,221.074l-12.755,7.239a80.1,80.1,0,0,1-9.387-7.486c-3.09-3.176-6.9-6.7-9.271-13.814C18.868,197.179,9.6,192.5,9.6,192.5s12.894,6.072,19.608,10.816,13.257,6.752,17.058,6.427C46.3,209.764,43.25,219.421,53.517,221.074Z" opacity="0.1"/>
    <path id="Path_23" data-name="Path 23" d="M177.205,38.332s-5.014,3.932-10.221,2.457C166.984,40.789,171.9,50.523,177.205,38.332Z" fill="#fff" stroke="#263238" stroke-linecap="round" stroke-linejoin="round" stroke-width="1.52"/>
    <path id="Path_24" data-name="Path 24" d="M177.39,29.834c-.147,1.082.185,2.016.726,2.094s1.1-.773,1.252-1.831-.178-2.016-.726-2.094S177.506,28.752,177.39,29.834Z" fill="#263238"/>
    <path id="Path_25" data-name="Path 25" d="M166.474,27.864c-.139,1.089.185,2.024.726,2.094s1.112-.773,1.251-1.823-.177-2.024-.726-2.094S166.62,26.782,166.474,27.864Z" fill="#263238"/>
    <path id="Path_26" data-name="Path 26" d="M178.163,25.245a3.82,3.82,0,0,1,5,1.723" fill="none" stroke="#263238" stroke-linecap="round" stroke-linejoin="round" stroke-width="1.52"/>
    <path id="Path_27" data-name="Path 27" d="M170.677,23.236s-3.09-2.65-4.875,0" fill="none" stroke="#263238" stroke-linecap="round" stroke-linejoin="round" stroke-width="1.52"/>
    <path id="Path_28" data-name="Path 28" d="M188.082,35.188s1.877-2.773,3.863-2.688,2.773,2.866,2.063,5.555-3.67,6.443-5.91,6.088a4.977,4.977,0,0,1-3.222-1.792" fill="none" stroke="#263238" stroke-linecap="round" stroke-linejoin="round" stroke-width="1.52"/>
    <path id="Path_29" data-name="Path 29" d="M170.081,13.965c-2.109,1.754-4.341,3.662-5.407,6.242-.943,2.194-1.152,4.635-2.017,6.853a22.922,22.922,0,0,0-2,7.44,31.544,31.544,0,0,0,.935,7.1,39.212,39.212,0,0,0,1.429,5.941,10.514,10.514,0,0,0,5.547,5.794c1.878.958,5.006,2.318,7.038,1.035a24.045,24.045,0,0,0,4.435-5.014" fill="none" stroke="#263238" stroke-linecap="round" stroke-linejoin="round" stroke-width="1.52"/>
    <path id="Path_30" data-name="Path 30" d="M188.083,44.142s-3.322,8.143-2.519,13.868" fill="none" stroke="#263238" stroke-linecap="round" stroke-linejoin="round" stroke-width="1.52"/>
    <path id="Path_31" data-name="Path 31" d="M188.932,33.82a3.2,3.2,0,0,1-1.282-2.866c.123-1.252.988-2.41.819-3.662a6.771,6.771,0,0,0-.665-1.715,7.193,7.193,0,0,1,.4-6.5s-10.553.494-15.5-2.65S163.994,5.235,166.984,1.4s8.814,1.4,13.133,1.978S199.794,6.4,202.243,12.32s-1.282,8.042-1.4,13.69-.116,16.347-8.56,15.366c0,0,3.16-4.087.966-8.3C191.76,31.309,188.932,33.82,188.932,33.82Z"/>
    <path id="Path_32" data-name="Path 32" d="M168.236,8.071a13.247,13.247,0,0,0-5.053,9.271c-.471,4.234-7.98,12.461-2.565,17.151,0,0,1.26-4.983,2-7.44s1.692-6.953,2.936-8.5S173.4,11.6,173.4,11.6Z"/>
    <path id="Path_33" data-name="Path 33" d="M187.109,57.832S181.9,61.262,172.23,61.4l-1.136,12.971s10.878-.827,18.966-8.266c0,0,2.187-5.786,1.607-8.274s-5.778-4.952-5.778-4.952" fill="none" stroke="#263238" stroke-linecap="round" stroke-linejoin="round" stroke-width="1.52"/>
    <path id="Path_34" data-name="Path 34" d="M165.23,52.029l-.309,4.635a19.174,19.174,0,0,0,7.309,4.751l-6.057,11.534s-7.224-5.624-7.942-11.534c0,0-.062-6.049,1.2-7.78s5.849-2.542,5.849-2.542" fill="none" stroke="#263238" stroke-linecap="round" stroke-linejoin="round" stroke-width="1.52"/>
    <path id="Path_35" data-name="Path 35" d="M194.541,16.183a6.184,6.184,0,0,0-4.952-3.4,51.309,51.309,0,0,0-6.265-.147,16.088,16.088,0,0,1-8.19-2.318,10.95,10.95,0,0,1-4.944-6.768" fill="none" stroke="#fff" stroke-linecap="round" stroke-linejoin="round" stroke-width="1.52" opacity="0.8"/>
    <path id="Path_36" data-name="Path 36" d="M199.524,15.8c-1.305-3.963-5.539-6.412-9.7-6.76-2.063-.178-4.149.062-6.181-.178s-4.195-1.089-5.269-2.858" fill="none" stroke="#fff" stroke-linecap="round" stroke-linejoin="round" stroke-width="1.52" opacity="0.8"/>
    <path id="Path_37" data-name="Path 37" d="M201.718,141.739c10.044,5.207,13.613-.155,19.206-4.589s1.924-12.361,3.09-25.07-1.738-34.325-1.738-34.325-2.5-.572-9.448-4.821-21.562-10.723-21.562-10.723" fill="none" stroke="#263238" stroke-linecap="round" stroke-linejoin="round" stroke-width="1.52"/>
    <path id="Path_38" data-name="Path 38" d="M191.768,122.5s1.591-5.045,6.088-5.177,11.588,1.893,16.641,11.45" fill="none" stroke="#263238" stroke-linecap="round" stroke-linejoin="round" stroke-width="1.52"/>
    <path id="Path_39" data-name="Path 39" d="M198.883,117.025a2.486,2.486,0,0,0,.811-.193,19.551,19.551,0,0,1,11.543-.525" fill="none" stroke="#263238" stroke-linecap="round" stroke-linejoin="round" stroke-width="1.52"/>
    <path id="Path_40" data-name="Path 40" d="M213.824,84.655c-8.181,9.039-12.168,21-15.946,32.586" fill="none" stroke="#263238" stroke-linecap="round" stroke-linejoin="round" stroke-width="1.52"/>
    <path id="Path_41" data-name="Path 41" d="M158.231,60.219s-14.833,3.538-22.08,4.38-8.421,1.854-8.421,1.854l-1.352,5.053" fill="none" stroke="#263238" stroke-linecap="round" stroke-linejoin="round" stroke-width="1.52"/>
    <path id="Path_42" data-name="Path 42" d="M89.11,69.01l50.517,1.939,4.126,51.955H135.1l-43.866-9.819L85.718,70.254Z" fill="#fff"/>
    <path id="Path_43" data-name="Path 43" d="M141.126,124.442,85.873,71.483l5.362,41.6Z" fill="#dde392"/>
    <path id="Path_44" data-name="Path 44" d="M141.126,124.442,85.873,71.483l5.362,41.6Z" fill="#fff" opacity="0.7"/>
    <path id="Path_45" data-name="Path 45" d="M141.126,123.051l-4.419-50.116L85.718,70.254l5.516,42.831Z" fill="none" stroke="#263238" stroke-linecap="round" stroke-linejoin="round" stroke-width="1.52"/>
    <path id="Path_46" data-name="Path 46" d="M107.211,94.536c.34,3.052,1.97,5.369,3.639,5.184s2.735-2.82,2.4-5.871-1.978-5.369-3.647-5.184S106.863,91.484,107.211,94.536Z" fill="#263238"/>
    <path id="Path_47" data-name="Path 47" d="M91.235,113.085s-23.347-.664-30.648,4.156S49,146.236,50.011,159.076s9.819,42.3,9.819,42.3l16.873-19.1s8.313-30.222,3.778-42.058c0,0,22.4,1.259,31.227-1.506,0,0,7.9-12.941,21.454-17.221Z"/>
    <path id="Path_48" data-name="Path 48" d="M56.268,201.884a115.753,115.753,0,0,0,16.054-18.542,152.76,152.76,0,0,1,31.064-34.17c9.356-7.587,11.473-19.948,23.015-26.152,19.121-10.251,35.654,10.121,41.834,14.246s16.881,8.8,16.881,8.8-3.909,14.679-15.39,16.417-23.092-6.181-28.585-2.356-9.556,20.9-27.7,30.9C98.62,199.2,78.417,207.176,68,212.553c-2.318,1.205-4.048,2.472-5.362,3.19-3.6,1.963-7.448,4.273-11.079,6.559L39.047,229.92S26.493,222.5,21.672,215.651c-.641-.92-1.978-3.369-3.229-5.733-2.727-5.168-6.181-9.8-10.963-12.361-3.307-1.784-6.25-2.317-6.181-2.5.317-.587,6.312-3.654,10.383-1.978,8.622,3.562,25.858,17.244,33.993,16.224a60.887,60.887,0,0,0,10.592-7.416Z" fill="none" stroke="#263238" stroke-miterlimit="10" stroke-width="1.52"/>
    <path id="Path_49" data-name="Path 49" d="M56.268,201.883c7.517,3.037,10.546,7.726,11.7,10.677,10.422-5.408,30.624-13.35,45.45-21.523,18.14-10.044,22.172-27.086,27.7-30.9s17.143,4.126,28.585,2.357,15.413-16.433,15.413-16.433-10.708-4.635-16.888-8.761-20.435-24.5-41.827-14.246c-11.813,5.663-13.659,18.542-23.015,26.151a152.668,152.668,0,0,0-31.064,34.171A113.562,113.562,0,0,1,56.268,201.883Z"/>
    <path id="Path_50" data-name="Path 50" d="M112.758,136.385s5.787-11.758,15.065-14.037" fill="none" stroke="#fff" stroke-linecap="round" stroke-linejoin="round" stroke-width="1.52"/>
    <path id="Path_51" data-name="Path 51" d="M143.089,112.977c6.381-1.391,13.388,5.663,16.339,4.342,2.194-.982,5.8,4.828,5.8,4.828a96.711,96.711,0,0,0,17.939.9c8.6-.549,12.67,1.128,15.714,5.725l4.249,11.256s-11.21,10.043-23.177,4.2-27.866-23.494-38.821-23.432" fill="none" stroke="#263238" stroke-linecap="round" stroke-linejoin="round" stroke-width="1.52"/>
    <path id="Path_52" data-name="Path 52" d="M54,220.773s-10.476.858-8.019-11.658" fill="none" stroke="#263238" stroke-miterlimit="10" stroke-width="1.52"/>
    <path id="Path_53" data-name="Path 53" d="M4.637,201.381c.773,1.546,10.375,9.719,18.65,16.865,0-.108-2.318-4.473-3.276-6.335-2.2-4.11-7.888-15.381-18.711-16.865C-.238,195.973,4.637,201.381,4.637,201.381Z" fill="#263238"/>
    <path id="Path_54" data-name="Path 54" d="M8.755,192.582c10.947,2.178,13.435,16.224,17.321,22.2s14.679,14.091,14.679,14.091" fill="none" stroke="#263238" stroke-miterlimit="10" stroke-width="1.52"/>
    <path id="Path_55" data-name="Path 55" d="M46.658,225.284c-1.785,3.261-.943,7.046,0,9.418a19.67,19.67,0,0,0,1.715,3.376c15.5-2.55,31-10.878,31-10.878l3.994-12.361L84,212.861l-6.018-8.1" fill="none" stroke="#263238" stroke-miterlimit="10" stroke-width="1.52"/>
    <path id="Path_56" data-name="Path 56" d="M46.657,234.7a19.67,19.67,0,0,0,1.715,3.376c15.5-2.549,31-10.878,31-10.878l3.994-12.361a22.09,22.09,0,0,1-11.272,8C64.542,224.983,50.613,227.486,46.657,234.7Z" fill="#263238"/>
    <path id="Path_57" data-name="Path 57" d="M143.753,121.1l-4.126-50.147L89.11,69.01l-3.392,1.244" fill="none" stroke="#263238" stroke-linecap="round" stroke-linejoin="round" stroke-width="1.52"/>
    <path id="Path_58" data-name="Path 58" d="M46.055,214.777s-6.907,1.236-12.214-3.09-13.86-14.115-13.86-14.115" fill="none" stroke="#263238" stroke-miterlimit="10" stroke-width="1.52"/>
    <path id="Path_59" data-name="Path 59" d="M39.024,208.551s1.669,2.51,0,7.547" fill="none" stroke="#263238" stroke-linecap="round" stroke-linejoin="round" stroke-width="1.52"/>
    <path id="Path_60" data-name="Path 60" d="M34.126,206.148A10.283,10.283,0,0,1,33.5,213.7" fill="none" stroke="#263238" stroke-linecap="round" stroke-linejoin="round" stroke-width="1.52"/>
    <path id="Path_61" data-name="Path 61" d="M28.286,202.764a13.359,13.359,0,0,1,0,7.9" fill="none" stroke="#263238" stroke-linecap="round" stroke-linejoin="round" stroke-width="1.52"/>
    <path id="Path_62" data-name="Path 62" d="M76.617,203.714l5.539,6.668a35.057,35.057,0,0,1-13.45,8.629c-7.872,2.534-21.933,6.837-23.1,11.419" fill="none" stroke="#263238" stroke-miterlimit="10" stroke-width="1.52"/>
  </g>
</svg>
