<svg xmlns="http://www.w3.org/2000/svg" width="48" height="48" viewBox="0 0 48 48">
  <path id="Path_1" data-name="Path 1" d="M0,24A24,24,0,1,1,24,48,24,24,0,0,1,0,24Zm16.961-4.122H11.522V36.22h5.439Zm.358-5.055A2.825,2.825,0,0,0,14.277,12a2.832,2.832,0,1,0-.071,5.647h.035A2.837,2.837,0,0,0,17.319,14.823ZM36.575,26.85c0-5.019-2.683-7.356-6.262-7.356a5.4,5.4,0,0,0-4.9,2.7V19.878h-5.44c.072,1.533,0,16.342,0,16.342h5.44V27.093a3.714,3.714,0,0,1,.179-1.325,2.976,2.976,0,0,1,2.791-1.986c1.969,0,2.756,1.5,2.756,3.694V36.22h5.439Z" fill="#fff" fill-rule="evenodd"/>
</svg>
