<svg id="Group_3" data-name="Group 3" xmlns="http://www.w3.org/2000/svg" width="48" height="48" viewBox="0 0 48 48">
  <path id="Path_13" data-name="Path 13" d="M0,24A24,24,0,1,1,24,48,24,24,0,0,1,0,24ZM33.895,10.4H14.905A2.9,2.9,0,0,0,12,13.284V32.212A2.9,2.9,0,0,0,14.905,35.1h16.07l-.751-2.59,1.814,1.666,1.715,1.568L36.8,38.4V13.284A2.9,2.9,0,0,0,33.895,10.4Z" fill="#fff" fill-rule="evenodd"/>
  <path id="Path_14" data-name="Path 14" d="M28.425,28.684s-.51-.6-.935-1.134a4.469,4.469,0,0,0,2.565-1.666,8.147,8.147,0,0,1-1.63.826,9.414,9.414,0,0,1-2.055.6A10.047,10.047,0,0,1,22.7,27.3a12.01,12.01,0,0,1-2.083-.6,8.356,8.356,0,0,1-1.035-.476c-.042-.028-.085-.042-.127-.07a.2.2,0,0,1-.057-.042c-.255-.14-.4-.238-.4-.238a4.4,4.4,0,0,0,2.48,1.652c-.425.532-.949,1.162-.949,1.162a5.149,5.149,0,0,1-4.322-2.128,18.576,18.576,0,0,1,2.041-8.162,7.066,7.066,0,0,1,3.982-1.47l.142.168a9.6,9.6,0,0,0-3.727,1.834s.312-.168.836-.406a10.746,10.746,0,0,1,3.217-.882,1.414,1.414,0,0,1,.241-.028,12.137,12.137,0,0,1,2.863-.028,11.654,11.654,0,0,1,4.266,1.344,9.466,9.466,0,0,0-3.529-1.778l.2-.224a7.066,7.066,0,0,1,3.982,1.47,18.576,18.576,0,0,1,2.041,8.162A5.192,5.192,0,0,1,28.425,28.684ZM22.234,22.4A1.61,1.61,0,1,0,23.668,24,1.52,1.52,0,0,0,22.234,22.4Zm5.132,0A1.61,1.61,0,1,0,28.8,24,1.52,1.52,0,0,0,27.366,22.4Z" fill="#fff" fill-rule="evenodd"/>
</svg>
